<svg xmlns="http://www.w3.org/2000/svg" viewBox="0 0 64 64" role="img" aria-label="Scalytics OSINT shield favicon">
  <defs>
    <linearGradient id="shieldFill" x1="0%" y1="0%" x2="100%" y2="100%">
      <stop offset="0%" stop-color="#fb923c" />
      <stop offset="100%" stop-color="#c2410c" />
    </linearGradient>
  </defs>
  <rect width="64" height="64" rx="14" fill="#120d0a" />
  <path
    d="M32 10l16 6v13c0 11.2-6.4 18.8-16 24.8C22.4 47.8 16 40.2 16 29V16l16-6z"
    fill="url(#shieldFill)"
  />
  <path
    d="M32 16.5l10 3.8v8.2c0 7.6-4.1 12.9-10 16.9-5.9-4-10-9.3-10-16.9v-8.2l10-3.8z"
    fill="#1f130d"
    opacity="0.38"
  />
  <path
    d="M32 18.5l8.5 3.2v6.9c0 6.2-3.3 10.5-8.5 14-5.2-3.5-8.5-7.8-8.5-14v-6.9l8.5-3.2z"
    fill="none"
    stroke="#fde6d5"
    stroke-width="3"
    stroke-linejoin="round"
  />
</svg>
